{
  "accessors": [
    {
      "bufferView": 2,
      "componentType": 5126,
      "count": 291,
      "max": [
        7.015873432159424,
        10.863746643066406,
        1.0
      ],
      "min": [
        -6.987569808959961,
        -10.959796905517578,
        -4.7486943799412984e-07
      ],
      "type": "VEC3"
    },
    {
      "bufferView": 2,
      "byteOffset": 3492,
      "componentType": 5126,
      "count": 291,
      "max": [
        1.0,
        1.0,
        1.0
      ],
      "min": [
        -1.0,
        -1.0,
        -1.0
      ],
      "type": "VEC3"
    },
    {
      "bufferView": 1,
      "componentType": 5126,
      "count": 291,
      "max": [
        0.7338624596595764,
        0.934549868106842
      ],
      "min": [
        0.26708099246025085,
        0.06160812824964523
      ],
      "type": "VEC2"
    },
    {
      "bufferView": 0,
      "componentType": 5125,
      "count": 360,
      "type": "SCALAR"
    }
  ],
  "asset": {
    "extras": {
      "author": "omcstudios333 (https://sketchfab.com/omcstudios333)",
      "license": "CC-BY-4.0 (http://creativecommons.org/licenses/by/4.0/)",
      "source": "https://sketchfab.com/3d-models/minecraftrose-7fc074f61b064937853eb957b17ad8dc",
      "title": "MinecraftRose"
    },
    "generator": "Sketchfab-14.65.0",
    "version": "2.0"
  },
  "bufferViews": [
    {
      "buffer": 0,
      "byteLength": 1440,
      "name": "floatBufferViews",
      "target": 34963
    },
    {
      "buffer": 0,
      "byteLength": 2328,
      "byteOffset": 1440,
      "byteStride": 8,
      "name": "floatBufferViews",
      "target": 34962
    },
    {
      "buffer": 0,
      "byteLength": 6984,
      "byteOffset": 3768,
      "byteStride": 12,
      "name": "floatBufferViews",
      "target": 34962
    }
  ],
  "buffers": [
    {
      "byteLength": 10752,
      "uri": "scene.bin"
    }
  ],
  "images": [
    {
      "uri": "textures/Material_25_baseColor.png"
    }
  ],
  "materials": [
    {
      "doubleSided": true,
      "name": "Material_25",
      "pbrMetallicRoughness": {
        "baseColorTexture": {
          "index": 0
        },
        "metallicFactor": 0.0,
        "roughnessFactor": 0.6
      }
    }
  ],
  "meshes": [
    {
      "name": "flower_Material #25_0",
      "primitives": [
        {
          "attributes": {
            "NORMAL": 1,
            "POSITION": 0,
            "TEXCOORD_0": 2
          },
          "indices": 3,
          "material": 0,
          "mode": 4
        }
      ]
    }
  ],
  "nodes": [
    {
      "children": [
        1
      ],
      "matrix": [
        1.0,
        0.0,
        0.0,
        0.0,
        0.0,
        2.220446049250313e-16,
        -1.0,
        0.0,
        0.0,
        1.0,
        2.220446049250313e-16,
        0.0,
        0.0,
        0.0,
        0.0,
        1.0
      ],
      "name": "Sketchfab_model"
    },
    {
      "children": [
        2
      ],
      "matrix": [
        0.02539999969303608,
        0.0,
        0.0,
        0.0,
        0.0,
        0.0,
        0.02539999969303608,
        0.0,
        0.0,
        -0.02539999969303608,
        0.0,
        0.0,
        0.0,
        0.0,
        0.0,
        1.0
      ],
      "name": "cc5e9ed353f24e208bab35bd77a117f9.fbx"
    },
    {
      "children": [
        3
      ],
      "name": "RootNode"
    },
    {
      "children": [
        4
      ],
      "matrix": [
        1.0,
        0.0,
        0.0,
        0.0,
        0.0,
        0.9999999999999867,
        1.6292068494294582e-07,
        0.0,
        0.0,
        -1.6292068494294582e-07,
        0.9999999999999867,
        0.0,
        0.0,
        0.0,
        0.0,
        1.0
      ],
      "name": "flower"
    },
    {
      "mesh": 0,
      "name": "flower_Material #25_0"
    }
  ],
  "samplers": [
    {
      "magFilter": 9729,
      "minFilter": 9987,
      "wrapS": 10497,
      "wrapT": 10497
    }
  ],
  "scene": 0,
  "scenes": [
    {
      "name": "Sketchfab_Scene",
      "nodes": [
        0
      ]
    }
  ],
  "textures": [
    {
      "sampler": 0,
      "source": 0
    }
  ]
}
